<?xml version="1.0" encoding="UTF-8" standalone="no"?>
<!-- Created with Inkscape (http://www.inkscape.org/) -->

<svg
   xmlns:dc="http://purl.org/dc/elements/1.1/"
   xmlns:cc="http://creativecommons.org/ns#"
   xmlns:rdf="http://www.w3.org/1999/02/22-rdf-syntax-ns#"
   xmlns:svg="http://www.w3.org/2000/svg"
   xmlns="http://www.w3.org/2000/svg"
   xmlns:sodipodi="http://sodipodi.sourceforge.net/DTD/sodipodi-0.dtd"
   xmlns:inkscape="http://www.inkscape.org/namespaces/inkscape"
   width="744.09448819"
   height="1052.3622047"
   id="svg3065"
   version="1.1"
   inkscape:version="0.48.0 r9654"
   sodipodi:docname="openmidibay.svg.2011_11_25_20_15_10.0.svg">
  <defs
     id="defs3067" />
  <sodipodi:namedview
     id="base"
     pagecolor="#ffffff"
     bordercolor="#666666"
     borderopacity="1.0"
     inkscape:pageopacity="0.0"
     inkscape:pageshadow="2"
     inkscape:zoom="1.4"
     inkscape:cx="271.64358"
     inkscape:cy="653.48516"
     inkscape:document-units="px"
     inkscape:current-layer="flowRoot3769"
     showgrid="false"
     inkscape:window-width="1440"
     inkscape:window-height="852"
     inkscape:window-x="0"
     inkscape:window-y="0"
     inkscape:window-maximized="1" />
  <metadata
     id="metadata3070">
    <rdf:RDF>
      <cc:Work
         rdf:about="">
        <dc:format>image/svg+xml</dc:format>
        <dc:type
           rdf:resource="http://purl.org/dc/dcmitype/StillImage" />
        <dc:title></dc:title>
      </cc:Work>
    </rdf:RDF>
  </metadata>
  <g
     inkscape:label="Layer 1"
     inkscape:groupmode="layer"
     id="layer1">
    <g
       id="g3968"
       transform="matrix(0.49869826,0,0,0.49869826,128.80193,173.1574)">
      <path
         id="path4678"
         d="m 325.71875,162.4375 c -109.623,0 -198.5,88.876 -198.5,198.5 0,91.48247 61.97029,168.28566 146.15625,191.28125 l 30.46875,-75.80184 c -2.76752,-1.09126 -5.42088,-2.4013 -7.96875,-3.875 -2.54787,-1.4737 -4.98912,-3.11693 -7.28125,-4.9375 -2.29213,-1.82057 -4.43719,-3.80563 -6.4375,-5.9375 -2.00031,-2.13187 -3.85884,-4.40489 -5.53125,-6.8125 -1.67241,-2.40761 -3.16032,-4.94598 -4.46875,-7.59375 -1.30843,-2.64777 -2.43539,-5.42888 -3.34375,-8.28125 -0.90836,-2.85237 -1.59028,-5.7911 -2.0625,-8.8125 -0.47222,-3.0214 -0.71875,-6.09515 -0.71875,-9.25 0,-2.06066 0.0774,-4.11812 0.28125,-6.125 0.2038,-2.00688 0.50865,-3.96316 0.90625,-5.90625 0.3976,-1.94309 0.88736,-3.88069 1.46875,-5.75 0.58139,-1.86931 1.27606,-3.68323 2.03125,-5.46875 0.75519,-1.78552 1.58101,-3.52702 2.5,-5.21875 0.91899,-1.69173 1.92722,-3.34955 3,-4.9375 1.07278,-1.58795 2.22093,-3.11959 3.4375,-4.59375 1.21657,-1.47416 2.49338,-2.86838 3.84375,-4.21875 1.35037,-1.35037 2.77584,-2.65843 4.25,-3.875 1.47416,-1.21657 3.0058,-2.36472 4.59375,-3.4375 1.58795,-1.07278 3.21451,-2.04976 4.90625,-2.96875 1.69174,-0.91899 3.43323,-1.77606 5.21875,-2.53125 1.78552,-0.75519 3.63069,-1.41861 5.5,-2 1.86931,-0.58139 3.77565,-1.07115 5.71875,-1.46875 1.9431,-0.3976 3.93062,-0.70245 5.9375,-0.90625 2.00688,-0.2038 4.03309,-0.3125 6.09375,-0.3125 2.06082,0 4.08675,0.1087 6.09375,0.3125 2.007,0.2038 3.99432,0.50865 5.9375,0.90625 1.94318,0.3976 3.84939,0.88736 5.71875,1.46875 1.86936,0.58139 3.6832,1.24481 5.46875,2 1.78555,0.75519 3.52701,1.61226 5.21875,2.53125 1.69174,0.91899 3.34957,1.89597 4.9375,2.96875 1.58793,1.07278 3.11962,2.22093 4.59375,3.4375 1.47413,1.21657 2.89967,2.52463 4.25,3.875 1.35033,1.35037 2.62722,2.74459 3.84375,4.21875 1.21653,1.47416 2.36477,3.0058 3.4375,4.59375 1.07273,1.58795 2.08106,3.24577 3,4.9375 0.91894,1.69173 1.74486,3.43323 2.5,5.21875 0.75514,1.78552 1.41865,3.59944 2,5.46875 0.58135,1.86931 1.07118,3.80691 1.46875,5.75 0.39757,1.94309 0.70247,3.89937 0.90625,5.90625 0.20378,2.00688 0.3125,4.06434 0.3125,6.125 0,3.15516 -0.24666,6.22843 -0.71875,9.25 -0.47209,3.02157 -1.15437,5.99132 -2.0625,8.84375 -0.90813,2.85243 -2.03561,5.60225 -3.34375,8.25 -1.30814,2.64775 -2.79665,5.18622 -4.46875,7.59375 -1.6721,2.40753 -3.53123,4.68073 -5.53125,6.8125 -2.00002,2.13177 -4.1456,4.11703 -6.4375,5.9375 -2.2919,1.82047 -4.73352,3.46386 -7.28125,4.9375 -2.54773,1.47364 -5.20123,2.78374 -7.96875,3.875 l 30.46875,75.80184 c 84.18724,-22.99559 146.15625,-99.79878 146.15625,-191.28125 0,-109.624 -88.872,-198.5 -198.5,-198.5 z"
         style="fill:none;stroke:#000000;stroke-width:20.05220604;stroke-linejoin:round;stroke-miterlimit:4;stroke-dasharray:none"
         inkscape:connector-curvature="0"
         sodipodi:nodetypes="ssccsssssssscssssssssssssssssssssssssssssssssssssssccss" />
      <path
         id="path4680"
         style="fill:none;stroke:#000000;stroke-width:10.02610302;stroke-miterlimit:4;stroke-dasharray:none"
         d="m 426.99679,360.93061 c 0,13.893 11.262,25.148 25.15,25.148 13.895,0 25.149,-11.258 25.149,-25.148 0,-13.883 -11.257,-25.146 -25.149,-25.146 -13.89,0.001 -25.15,11.263 -25.15,25.146 z"
         inkscape:connector-curvature="0" />
      <path
         id="path4682"
         style="fill:none;stroke:#000000;stroke-width:10.02610302;stroke-miterlimit:4;stroke-dasharray:none"
         d="m 174.12979,360.93061 c 0,13.893 11.262,25.148 25.151,25.148 13.894,0 25.151,-11.258 25.151,-25.148 0,-13.883 -11.257,-25.146 -25.151,-25.146 -13.889,0.001 -25.151,11.263 -25.151,25.146 z"
         inkscape:connector-curvature="0" />
      <path
         id="path4684"
         style="fill:none;stroke:#000000;stroke-width:10.02610302;stroke-miterlimit:4;stroke-dasharray:none"
         d="m 212.67479,247.90061 c -9.82,9.82 -9.82,25.746 0.005,35.566 9.821,9.826 25.74,9.826 35.566,0 9.814,-9.815 9.82,-25.741 -0.005,-35.561 -9.821,-9.825 -25.746,-9.825 -35.566,-0.005 z"
         inkscape:connector-curvature="0" />
      <path
         id="path4686"
         style="fill:none;stroke:#000000;stroke-width:10.02610302;stroke-miterlimit:4;stroke-dasharray:none"
         d="m 325.71379,209.37261 c -13.888,0 -25.15,11.262 -25.145,25.15 -0.005,13.894 11.251,25.151 25.148,25.151 13.877,0 25.143,-11.257 25.143,-25.151 0,-13.888 -11.257,-25.15 -25.146,-25.15 z"
         inkscape:connector-curvature="0" />
      <path
         id="path4688"
         style="fill:none;stroke:#000000;stroke-width:10.02610302;stroke-miterlimit:4;stroke-dasharray:none"
         d="m 438.74379,247.91761 c -9.814,-9.821 -25.745,-9.821 -35.562,0.005 -9.831,9.82 -9.831,25.739 -0.005,35.565 9.815,9.815 25.74,9.821 35.562,-0.005 9.825,-9.821 9.825,-25.746 0.005,-35.565 z"
         inkscape:connector-curvature="0" />
    </g>
    <flowRoot
       xml:space="preserve"
       id="flowRoot3976"
       style="font-size:40px;font-style:normal;font-weight:normal;line-height:125%;letter-spacing:0px;word-spacing:0px;fill:#000000;fill-opacity:1;stroke:none;font-family:Sans"
       transform="matrix(1.2741161,0,0,1.2741161,-154.93476,-140.21054)"><flowRegion
         id="flowRegion3978"><rect
           id="rect3980"
           width="411.13208"
           height="106.06602"
           x="144.45181"
           y="483.6463" /></flowRegion><flowPara
         id="flowPara3982"
         style="font-style:normal;font-variant:normal;font-weight:normal;font-stretch:normal;text-align:center;text-anchor:middle;font-family:Righteous;-inkscape-font-specification:Righteous">openmidibay.cc</flowPara></flowRoot>    <text
       xml:space="preserve"
       style="font-size:40px;font-style:normal;font-weight:normal;line-height:125%;letter-spacing:0px;word-spacing:0px;fill:#000000;fill-opacity:1;stroke:none;font-family:Sans"
       x="32.857143"
       y="353.79074"
       id="text4104"
       sodipodi:linespacing="125%"><tspan
         sodipodi:role="line"
         id="tspan4106"
         x="32.857143"
         y="353.79074" /></text>
    <g
       style="font-size:40px;font-style:normal;font-weight:normal;line-height:125%;letter-spacing:0px;word-spacing:0px;fill:#000000;fill-opacity:1;stroke:none;font-family:Sans"
       id="flowRoot3769">
      <path
         d="m 402.375,263.96875 c 9.33582,0.38319 21.80528,-1.31491 27.90625,7.4375 6.00822,12.29316 2.51372,26.7602 3.5,39.9375 0.11927,11.89865 -0.95418,27.84497 10.90625,34.65625 4.95348,2.8243 10.67968,3.60927 16.09375,5.1875 -9.84047,2.23401 -21.96796,5.50262 -24.8125,16.625 -5.33169,19.55534 0.87822,40.41154 -4.09375,59.96875 -2.78657,10.24562 -15.27694,10.83204 -24.0625,10.84375 -7.87231,-3.34498 -5.97738,8.67386 -4.4375,11.34375 12.89139,-0.39104 27.61519,0.64001 38.21875,-7.875 10.16029,-11.80384 7.15956,-28.94001 7.78125,-43.4375 0.46312,-12.17531 -2.16391,-27.7727 8.15625,-36.75 7.13304,-5.26472 16.51569,-5.14455 25.03125,-5.09375 -0.47176,-5.1558 2.58404,-13.78879 -5.62486,-11.2357 -9.80352,0.22739 -22.0714,-2.75192 -25.21889,-13.3893 -4.95794,-17.01227 -0.76174,-35.15472 -2.88075,-52.58879 -0.65694,-9.99058 -5.10495,-21.52231 -16.1505,-23.84871 -9.77185,-2.98881 -20.11502,-3.02712 -30.3125,-3 0,3.73958 0,7.47917 0,11.21875 z"
         id="path3782"
         inkscape:connector-curvature="0" />
      <path
         style="font-size:40px;font-style:normal;font-weight:normal;line-height:125%;letter-spacing:0px;word-spacing:0px;fill:#000000;fill-opacity:1;stroke:none;font-family:Sans"
         d="m 172.1875,252.78125 c -11.34545,0.75415 -25.14328,0.42033 -33.15625,9.90625 -8.9452,14.61831 -4.91786,32.90086 -5.90625,49.25 0.10387,10.78274 -0.1476,25.26548 -11.4375,30.59375 -6.71571,3.16833 -14.43629,3.12268 -21.78125,3.0625 0.47176,5.1558 -2.58404,13.78879 5.62486,11.2357 9.85231,-0.24233 22.08893,2.83692 25.21889,13.5143 4.89765,16.71451 0.93472,34.566 2.78125,51.71875 0.64348,9.93205 4.46009,21.9154 15.40625,24.625 10.02148,3.29673 20.68498,3.26922 31.15625,3.28125 -0.64045,-4.96372 2.78185,-13.99018 -5.46875,-11.34375 -8.65225,-0.066 -20.86163,-0.51099 -23.875,-10.40625 -4.3259,-16.16661 -0.79323,-33.3341 -2.34375,-49.875 -0.15331,-9.70301 -4.46854,-20.40729 -14.4375,-23.53125 -4.01138,-1.58715 -8.29128,-2.36103 -12.40625,-3.65625 9.43972,-1.90299 21.32036,-4.7637 24.5625,-15.15625 5.83443,-19.43473 -0.23863,-40.29993 4.125,-59.90625 1.54261,-8.86126 11.24006,-11.85312 19.0625,-11.9375 3.62034,-1.27027 11.84577,2.50698 10.78125,-3.1875 0.78721,-8.16013 0.44754,-9.12154 -7.90625,-8.1875 z"
         id="path3782-0"
         inkscape:connector-curvature="0" />
    </g>
  </g>
</svg>
